<?xml version="1.0" standalone="no"?>
<!DOCTYPE svg PUBLIC "-//W3C//DTD SVG 20010904//EN"
 "http://www.w3.org/TR/2001/REC-SVG-20010904/DTD/svg10.dtd">
<svg version="1.0" xmlns="http://www.w3.org/2000/svg"
 width="500.000000pt" height="500.000000pt" viewBox="0 0 500.000000 500.000000"
 preserveAspectRatio="xMidYMid meet">
<metadata>
Created by potrace 1.14, written by Peter Selinger 2001-2017
</metadata>
<g transform="translate(0.000000,500.000000) scale(0.100000,-0.100000)"
fill="#000000" stroke="none">
<path d="M2541 4438 c-56 -76 -134 -203 -185 -305 -68 -136 -103 -239 -142
-418 -3 -16 -7 -89 -9 -160 -5 -182 23 -320 96 -482 15 -35 26 -63 23 -63 -9
0 -54 55 -97 120 -90 134 -136 292 -139 469 -1 71 -2 72 -18 51 -24 -32 -87
-197 -106 -276 -18 -80 -21 -218 -5 -286 27 -115 91 -211 245 -363 151 -150
373 -292 524 -335 67 -19 186 -40 230 -40 l42 0 -5 99 c-9 206 -54 325 -229
604 -152 243 -217 383 -251 544 -53 240 -31 554 59 846 8 26 12 47 10 47 -2 0
-21 -24 -43 -52z"/>
<path d="M1113 4273 c-178 -301 -214 -579 -113 -874 48 -139 127 -273 249
-423 67 -83 62 -83 -36 -1 -66 56 -155 156 -220 247 l-44 63 6 -90 c3 -49 7
-101 9 -115 4 -23 6 -36 20 -99 10 -44 29 -96 56 -151 81 -169 204 -291 385
-384 55 -28 64 -36 44 -36 -40 0 -154 37 -218 72 -75 40 -166 106 -235 169
l-57 52 21 -54 c140 -358 399 -565 725 -580 27 -1 25 -2 -15 -14 -27 -7 -88
-11 -155 -10 -93 2 -128 8 -226 38 -64 20 -151 52 -193 71 -42 19 -73 30 -70
23 117 -198 270 -341 419 -392 69 -24 228 -28 346 -9 116 18 136 21 224 29 39
4 80 8 93 10 12 2 22 2 22 -1 0 -10 -223 -109 -318 -141 -151 -50 -253 -53
-356 -8 l-39 16 46 -54 c97 -113 201 -176 302 -185 123 -9 230 33 340 136 130
121 286 209 424 238 84 17 228 12 305 -13 l58 -18 -108 2 c-179 3 -312 -41
-442 -145 -23 -18 -107 -97 -185 -174 -78 -77 -169 -159 -202 -181 -87 -60
-230 -116 -335 -133 -114 -18 -178 -22 -335 -19 -99 2 -202 6 -230 9 -112 13
-142 17 -175 23 l-34 6 32 -40 c81 -103 266 -208 403 -228 24 -4 46 -8 49 -10
10 -6 135 -16 210 -17 324 -4 677 126 960 353 74 59 57 36 -45 -61 -260 -249
-609 -501 -857 -620 -58 -28 -93 -50 -85 -53 18 -7 497 -1 549 7 21 3 64 10
95 16 32 6 72 14 88 17 111 19 295 96 393 164 174 122 279 261 487 649 86 159
185 317 248 395 41 50 181 192 227 230 92 76 284 186 417 240 40 17 73 32 73
35 0 3 -32 11 -71 18 -40 7 -140 35 -223 62 -215 70 -309 89 -425 86 -141 -4
-249 -52 -362 -158 -22 -20 -35 -24 -73 -22 -82 5 -407 98 -443 127 -7 5 -13
7 -13 4 0 -10 -204 79 -298 129 -277 150 -447 291 -662 549 -262 315 -372 656
-372 1148 0 92 -1 167 -2 167 -1 0 -25 -39 -53 -87z"/>
</g>
</svg>
